<svg width="26" height="26" viewBox="0 0 26 26" fill="none" xmlns="http://www.w3.org/2000/svg">
<path d="M2.16667 26C2.16667 26 0 26 0 23.8333C0 21.6667 2.16667 15.1667 13 15.1667C23.8333 15.1667 26 21.6667 26 23.8333C26 26 23.8333 26 23.8333 26H2.16667ZM13 13C14.7239 13 16.3772 12.3152 17.5962 11.0962C18.8152 9.87721 19.5 8.22391 19.5 6.5C19.5 4.77609 18.8152 3.12279 17.5962 1.90381C16.3772 0.68482 14.7239 0 13 0C11.2761 0 9.62279 0.68482 8.40381 1.90381C7.18482 3.12279 6.5 4.77609 6.5 6.5C6.5 8.22391 7.18482 9.87721 8.40381 11.0962C9.62279 12.3152 11.2761 13 13 13Z" fill="#0DB2FF"/>
</svg>
